<?xml version="1.0" encoding="UTF-8"?>
<svg id="Calque_2" data-name="Calque 2" xmlns="http://www.w3.org/2000/svg" viewBox="0 0 565.68 352.56">
  <defs>
    <style>
      .cls-1 {
        fill: #222221;
      }
    </style>
  </defs>
  <g id="Calque_1-2" data-name="Calque 1">
    <g>
      <path class="cls-1" d="M564.62,258.08c-3.4-16.57-14.75-27.39-32.93-31.48,1.97-2.85,3.67-5.83,4.94-8.84,7.43-15.77,4.17-39.47-7.07-51.71-4.58-5.15-11.57-8.48-20.05-9.99,0-1.44-.27-2.83-.83-4.16-1.66-4.21-4.23-8.13-7.44-11.34-2.41-2.41-4.97-4.34-7.41-5.86,13.74,1.89,35.66,2.94,47.1-6.89,5.47-4.68,7.98-11.29,7.47-19.65-.38-6-2.17-10.63-5.31-13.78-12.09-12.08-40.54,2.93-53.04,10.52,18.74-31.43,8.73-45.53,5.02-49.24-3.14-3.14-7.48-5.4-12.88-6.72-13.34-3.4-23.69-.92-30.75,7.41-2.39,2.88-4.15,6.17-5.39,9.67-.04-4.37-.27-8.52-.73-12.36-3.5-31.83-19.31-38.05-31.94-37.74-13.84.44-25.07,5.24-33.35,14.26-14.17,15.15-17.21,39.34-17.51,55.27-5.63-34.16-20.6-65.85-40.94-65.85-6.68,0-12.47,4.22-16.77,12.04-1.66-8-5.02-15.44-9.87-20.72-12.05-13.54-40.64-14.6-69.53-2.57-15.15,6.26-30.66,16.43-41.47,30.02-6.98-8.63-15.71-13-26.09-13-2.69,0-5.53.34-8.56.97-.21-.61-.4-1.22-.64-1.82-4.21-10.91-13.09-17.19-26.37-18.67-11.98-1.43-27.83-3.07-44.18-3.07C33.12,2.78,6.93,13.75,2.36,34.5c-10.61,48.68,17.06,109.46,33.15,134.77,1.33,2.13,3.05,4.09,5.06,5.89-13.31,9.31-23.66,23.21-27.03,42.14-11.51,65.95-15.35,113.88,40.35,129.93,6.15,1.81,12.45,2.72,18.71,2.72,26.74,0,47.93-16.27,60.13-33.02,2.61,5.26,5.24,9.8,7.79,13.31,4.76,6.64,9.03,9.87,13.26,9.87h0c15.93-.75,20.49-26.63,21.78-40.11.5,5.53,1.54,13.18,3.72,20.48,5.81,19.46,15.89,23.55,23.33,23.55,1.15,0,2.89,0,5.53-.75,11.33-2.62,22.77-23.39,30.68-44.38,9.39,24.87,23.23,40.87,37.13,40.87.73,0,1.29-.12,1.77-.23l.38-.02c7.96-.81,14.98-7.68,20.67-18.15,1.56,2.63,3.27,5.06,5.14,7.26,8.75,10.34,21.5,15.72,36.71,15.72,4.42,0,9.06-.46,13.86-1.38,13.92-2.48,22.16-8.01,24.48-16.34,5.81-18.76-19.14-46.15-26.43-53.64.22.07.46.14.73.22,1.6.42,4.16.99,7.95.99,8.6,0,19.28-2.36,32.58-7.19,6.19-2.15,11.99-5.37,17.22-9.36,1.81,2.46,3.94,4.56,6.46,6.19,6.53,4.07,14.83,4.82,22.19,4.14-4.33,5.15-7.87,11.27-10.53,18.41-9.43,25.13,2.5,46.26,12.81,54.32,10.03,7.91,24.09,11.85,38.8,11.85,15.31,0,31.34-4.27,44.25-12.76,27.52-17.97,45.28-54.63,39.61-81.72ZM454.57,98.99l-.15-.39c-4.13-8.92-5.49-27.39,2.8-37.41,5.09-6,12.67-7.62,23.17-4.94,4.07.99,7.22,2.59,9.37,4.74,12,12-7.22,41.9-9.45,45.27l-.2.31c-1.48,2.47-1.07,5.56.99,7.53,2.05,1.95,5.12,2.23,7.48.66,15.92-10.76,41.7-22.55,49.2-15.06,1.81,1.81,2.86,4.82,3.12,8.93.36,5.95-1.23,10.35-4.86,13.47-10.77,9.26-37.47,6.44-51.75,3.27-3.05-.61-6.12,1.33-6.97,4.43-.81,3,.72,6.02,3.64,7.19l.43.15c2.53.79,9,3.22,14.53,8.75,2.45,2.45,4.49,5.56,5.79,8.86.06.15.08.33.12.49.46,1.89-.64,4.54-3.03,7.41-.76.91-1.63,1.84-2.64,2.78-10.66,9.48-30.74,15.57-42.63,9.42-.09-.05-.19-.08-.28-.13-1.6-.96-2.67-1.75-3.49-2.57-.82-.82-1.47-1.74-2-2.73-5.51-10.41,4.24-29.25,7.55-34.27l.46-.73c1.19-2.4.83-5.19-.95-6.96l-.19-.19c-1.74-1.74-4.34-2.22-6.52-1.23h-.03c-3.26,1.3-7.38,2.65-11.76,3.74-2.72.67-5.53,1.23-8.32,1.6-8.07,1.07-15.87.55-20.09-3.67-3.44-3.44-4.61-9.51-3.47-18.03.89-6.56,3.31-10.82,7.11-12.64,5.2-2.34,13.75-.96,23.85,3.64,2.26,1.03,4.6,2.22,7,3.57.98.55,1.97,1.13,2.97,1.73.15.09.28.17.4.24,2.2,1.43,5.07,1.21,7.01-.55,1.9-1.53,2.61-4.16,1.78-6.66ZM418.5,172.97c5.81-9.79,11-22.15,14.92-33.85h0c.11-.34.21-.67.32-1,5.13-1.02,9.81-2.45,13.28-3.66-1.84,3.35-4.18,8.22-5.86,13.26-3.49,10.48-3.42,19.2.14,25.59-4.7,3.04-9.21,6.46-13.37,10.25-2.56-3.78-5.72-7.32-9.43-10.59ZM308.66,41.61c3.17-9.2,7.89-14.48,12.95-14.48,13.4,0,30.09,25.88,34.83,69.13.8,8.61,1.27,14.7,1.3,15.12,0,1.79.78,3.45,2.19,4.67,1.47,1.26,3.44,1.88,5.33,1.68,1.8-.08,3.49-.88,4.67-2.23,1.22-1.39,1.8-3.23,1.61-5.09-.12-2.81-.42-5.58-.71-8.26-.26-2.41-.5-4.69-.61-6.88-.5-9.68-.89-42.61,15.35-59.96,6.98-7.6,16.16-11.47,28.05-11.85,5.12-.14,20.75-.58,24.24,31.07,1.28,10.84.8,24.18-1.22,38.46-9.18-3.92-19.92-6.54-28.25-2.79-4.35,2.08-9.86,6.97-11.41,18.47-1.46,10.97.42,19.17,5.61,24.36,5.67,5.67,14.28,6.9,22.8,6.26-4.14,11.87-8.64,21.63-12.92,28.98-.33-.23-.65-.48-.99-.71-10.8-7.43-23.08-11.68-35.74-12.46-.84-5.29-1.24-10.42-1.32-14.54v-3.12c0-1.9-.75-3.68-2.11-5.01-1.32-1.29-3.05-1.99-4.88-1.99-.06,0-.12,0-.18,0-3.95.1-7.1,3.4-7.01,7.35l.07,2.86c-.14,4.63-.66,10.1-1.58,15.49-8.63,1.62-17.28,4.86-25.41,9.68-3.19-5.87-6.41-13.12-9.47-21.16-1.3-3.41-2.56-6.94-3.79-10.6-5.35-16.02-9.81-34.02-12.15-50.55-.43-3.04-.79-6.02-1.06-8.94-1.24-13.08-.89-24.74,1.82-32.98ZM304.31,194.32l-.49-1.14-.12-.24c-2.44-4.69-5.2-8.65-8.25-11.87,9.58-7.37,17.74-17.01,23.83-27.52,2.52,6.12,5.13,11.68,7.73,16.41-8.61,6.22-16.4,14.37-22.69,24.36ZM282.52,180.63c-9.8,5.53-21.12,8.6-32.21,9.22l-3.86.13c-1.37,0-2.74,0-4.1-.07l-4.67-.41c-9.8-1.18-18.82-4.45-25.67-9.86-.86-.67-1.73-1.49-2.61-2.4-1.63-1.7-3.25-3.8-4.72-6.26-5.33-8.87-8.66-22.22-3.08-37.1,4.28-11.45,10.95-19.98,19.81-25.35,25.24-13.51,56.82,3.24,60.34,5.2.05.02.21.11.26.14.53.27,1.1.4,1.65.4,1.34,0,2.63-.75,3.31-2.03.96-1.81.23-4.09-1.56-5.08-3.9-2.17-17.88-9.33-34.62-11.05,14,.39,29.11-6.29,40.9-18.06l.5.12c2.77.47,5.35,1.1,7.76,1.88,2.51,21.1,8.59,44.76,15.81,64.45-6,12.15-15.12,23.46-26.17,31.57-1.09.8-2.18,1.57-3.31,2.31-1.22.8-2.49,1.54-3.76,2.26ZM170.79,237.26c-2.65-16.06-7.36-31.58-13.73-43.51,1.72.48,3.44.74,5.17.74.73,0,1.28-.12,1.77-.23l.38-.02c11.67-1.19,21.31-15.38,27.72-34.9,1.15,5.63,3.22,10.67,5.71,14.93-3.5,2.09-6.69,4.64-9.52,7.71-14.17,15.15-17.21,39.34-17.51,55.27ZM123.99,172.59c-2.66-2.69-6.02-4.98-9.94-6.81,1.61-4.98,1.53-10.53-.34-16.64-4.66-14.85-9.71-22.22-13.38-25.87,2.63.9,6.04,1.82,9.38,1.82,2.38,0,4.98-.46,7.11-1.93,3.53,19.38,9.53,36.2,16.85,48.64-1.25-.25-2.52-.38-3.81-.38-2.04,0-4,.41-5.86,1.17ZM113.72,92.33c.02,1.84.08,3.7.17,5.58-2.49-2.24-5.38-4.13-8.35-5.6,1.74.15,3.39.14,4.94.12h1.17c.71,0,1.38-.07,2.07-.1ZM200.38,113.05c1.6,0,3.19-.09,4.72-.25-1.91,2.27-3.65,4.73-5.24,7.39.22-2.38.39-4.76.52-7.14ZM299.15,71.98c-.68-.18-1.36-.36-2.06-.52.65-.94,1.27-1.89,1.85-2.86.06,1.12.13,2.24.21,3.38ZM188.45,44.89c9.94-13.43,25.09-23.48,39.87-29.59,25.57-10.65,51.23-10.39,61.06.66,9.26,10.08,11.99,30.39,5.79,43.59-1.79,4.21-4.4,8.33-7.57,11.9-10.71,11.31-24.64,17.7-37.26,17.12-7.68-.38-14.05-3.8-17.48-9.38-1.09-1.77-3.4-2.32-5.18-1.24-1.77,1.09-2.32,3.41-1.24,5.18,4.35,7.08,11.94,11.6,21.04,12.7-9.64-.54-20.01.88-29.79,6.14-2.08,1.16-9.33,3.5-17.04,3.6-2.52.03-5.08-.18-7.53-.75-2.2-.51-4.31-1.31-6.21-2.49-5.83-3.76-9.09-11.19-9.69-22.08-.54-10.35,1.99-19.73,6.52-28.05,1.39-2.54,2.96-4.99,4.69-7.33ZM151.08,33.64c2.41-.48,4.67-.75,6.79-.75,8.66,0,15.75,3.9,21.53,11.87-6.56,10.34-10.39,22.36-9.69,35.9.73,13.44,5.15,22.86,13.17,28.03,3.09,1.93,6.52,3.07,10.02,3.71-.78,15.95-3.51,31.72-8,45.12-5.74,17.17-13.84,28.34-21.16,29.21-.61.02-1.09.12-1.52.22-16.78,0-33.06-35.32-38.53-68.04-1.62-9.67-2.4-18.98-2.44-27.67-.01-2.69.04-5.31.18-7.87-.01,0-.03,0-.04.01.02,0,.04-.03.04-.06.61-11.6,2.69-21.8,6.16-29.81,2.07-4.78,5.1-9.09,8.77-12.79h0c2.1-2.12,4.59-3.81,7.34-4.98h0s.04-.04.04-.07c0,.02,0,.03,0,.05.32-.14.64-.28.97-.41,2.26-.75,4.36-1.29,6.36-1.7ZM115.11,84.69c.25-.02.51-.04.76-.07-.25.03-.51.04-.76.07ZM117.38,84.39c.14-.02.29-.04.43-.07-.14.03-.29.04-.43.07ZM119.65,83.91c.18-.05.35-.11.53-.16-.18.05-.35.11-.53.16ZM143.55,34.3c-.03-.17-.04-.34-.07-.51.03.17.05.34.07.51ZM143.11,31.92c-.04-.16-.08-.31-.12-.47.04.16.09.31.12.47ZM142.63,30.1c-.07-.25-.16-.48-.24-.73.08.24.17.48.24.73ZM41.88,165.26C23.82,136.87.36,79.04,9.71,36.11,14.65,13.66,54.7,10.3,78.13,10.3c15.95,0,31.51,1.61,43.32,3.02,10.46,1.17,17.07,5.73,20.22,13.94l.04.09c.13.31.22.64.34.96,0,.02.01.04.02.06-.01-.03-.05-.05-.08-.04-.93.36-1.82.74-2.69,1.16-2.98,1.43-5.67,3.4-8.02,5.73h0c-4.41,4.41-8.07,9.55-10.56,15.27-4.05,9.3-6.38,20.98-6.89,34.23,0,.04.03.07.07.07-.02,0-.05,0-.07,0-.71.04-1.42.09-2.16.09h-1.23c-2.7.02-5.52.05-8.19-.88-8.71-3.03-11.92-4.05-13.25-4.39v-.02c-3.33-.99-6.88.79-8.26,4.13l-.13.37c-.89,3.04.3,6.31,2.8,7.94.61.49,1.7.86,5.9,2.27,2.26.76,5.2,1.74,8.5,2.9,8.07,2.74,16.13,8.68,15.96,15.74-.13,4.21-1.21,4.61-4.04,4.61-3.52,0-7.75-1.68-9.89-2.52l-.35-.15c-1.77-.75-4.46-1.88-7.12-.7-1.08.48-2.54,1.53-3.39,3.83-2.13,5.23,2.32,7.93,4.01,8.95l.48.29c1.17.79,7.27,5.65,13.07,24.11,1.36,4.44,1.5,8.32.47,11.77-5.67-1.65-12.07-2.55-18.95-2.55-13.5,0-28.04,3.36-40.74,10.37-2.26-1.7-4.1-3.61-5.42-5.7ZM72.61,342.42c-5.54,0-11.12-.81-16.61-2.42-49.93-14.39-46.55-55.46-35.04-121.39,3.15-17.74,13.31-30.52,26.21-38.8,2.6-1.67,5.31-3.15,8.1-4.45,10.44-4.88,21.96-7.24,32.76-7.24,5.43,0,10.48.6,14.98,1.7,2.77.68,5.33,1.56,7.63,2.62,2.76,1.27,5.14,2.79,7.08,4.55-3.18,3.3-5.89,8.01-7.96,14.03-4.76,14.51-3.07,38.05,1.93,62.11-.44.77-.88,1.53-1.34,2.28-8.35,10.92-18.04,17.71-26.64,18.67h-2.39c-6.73,0-12.07-3.21-15.88-9.53-1.07-1.78-3.39-2.35-5.17-1.28-1.78,1.07-2.35,3.39-1.28,5.17,6.56,10.89,15.76,13.17,22.32,13.17h2.59l.38-.02c9.98-1.01,20.39-7.59,29.63-18.6,4.03,16.59,9.42,32.85,15.15,46.03-10.56,16.34-30.7,33.42-56.46,33.42ZM234.53,288.54c-9.69,28.92-21.72,46.01-28.12,47.42l-.25.06c-1.67.49-2.58.49-3.54.49-15.07,0-19.65-28.92-19.96-44.14v-3.19c0-1.89-.74-3.65-2.09-4.96-1.31-1.27-3.01-1.97-4.83-1.97-.06,0-.12,0-.18,0-3.99.1-7.16,3.43-7.08,7.42l.07,2.79c-.87,28.76-9.73,39.88-14.93,40.13-.02,0-2.35-.29-6.98-6.76-2.96-4.07-6.04-9.66-9.08-16.25-1.28-2.78-2.56-5.75-3.81-8.86-5.06-12.56-9.76-27.51-13.27-42.53-1.3-5.55-2.43-11.1-3.35-16.54-3.25-19.12-3.95-36.9-.23-48.24,1.48-4.29,3.3-7.71,5.32-10.16,1.96-2.36,4.12-3.8,6.36-4.2.42-.07.84-.12,1.26-.12,13.4,0,30.09,25.88,34.83,69.13.8,8.57,1.27,14.69,1.3,15.12,0,1.79.78,3.45,2.19,4.67,1.47,1.26,3.43,1.88,5.34,1.68,1.8-.08,3.49-.88,4.67-2.23,1.22-1.39,1.79-3.23,1.61-5.09-.12-2.82-.42-5.59-.71-8.28-.26-2.41-.5-4.68-.61-6.85-.5-9.68-.88-42.61,15.35-59.97,2.48-2.7,5.25-4.91,8.31-6.68,1.72,2.05,3.49,3.78,5.23,5.14,7.25,5.72,16.62,9.33,26.81,10.91-7.14,16.9-8.76,41.4-4.15,68.96,1.28,7.68,2.96,14.97,4.94,21.78-.14.44-.28.88-.42,1.32ZM277.48,332.01c-.61.02-1.09.12-1.52.22-12.86,0-25.42-20.76-33.05-45.18-1.44-4.6-2.7-9.33-3.76-14.07-.65-2.93-1.23-5.87-1.72-8.78-4.53-27.09-2.7-51.49,4.61-66.92.86.04,1.71.07,2.57.09.51,0,1.02.05,1.54.05,2.03,0,4.08-.09,6.13-.24,12.9-.95,25.92-4.9,36.88-11.77,2.88,2.8,5.47,6.42,7.81,10.89l2.53,5.85c.06.14.11.3.16.44-4.37,8.82-7.64,18.83-9.43,30.01-5.28,33.19-3.67,60.9,4.4,80.39-5.19,11.29-11.4,18.33-17.15,19.02ZM391.29,259.92c-12.34,4.49-22.46,6.76-30.06,6.76-2.88,0-4.73-.39-5.9-.7-1.31-.4-1.96-.61-1.97-.61h0c-3.62-1.33-6.46-.84-8.44,1.46-1.18,1.26-1.82,2.98-1.76,4.76.06,1.79.82,3.49,2.18,4.85,10.41,9.91,30.57,34.67,26.42,48.07-1.88,6.73-11.15,9.73-18.64,11.06-13.14,2.52-31.34,2.52-43.47-11.81-2.65-3.11-4.94-6.74-6.89-10.85-1.54-3.25-2.85-6.82-3.96-10.66-5.05-17.51-5.53-40.9-1.14-68.47,1.17-7.3,3.01-14.05,5.41-20.25,1.41-3.66,3.03-7.13,4.8-10.41,6.06-11.17,14.06-20.1,23.03-26.71,2.05-1.51,4.15-2.88,6.28-4.15,6.36-3.77,13.06-6.48,19.8-8.07,2.68-.64,5.37-1.09,8.05-1.38,1.49-.16,2.97-.26,4.45-.31.67-.02,1.34-.05,2-.05,1.94,0,3.86.12,5.78.31,10.6,1.01,20.86,4.74,29.97,11.01l.04.03c.39.26.76.54,1.14.81,2.14,1.5,4.12,3.08,5.93,4.75,3.23,2.98,5.94,6.2,8.09,9.64-11.49,12.45-19.08,28.19-18.11,46.8.32,5.84,1.38,10.88,3.08,15.18-4.84,3.83-10.28,6.91-16.11,8.93ZM421.52,257.48c-1.86-1.2-3.42-2.8-4.75-4.74-1.39-2.02-2.51-4.43-3.32-7.24-.85-2.95-1.4-6.3-1.61-10.09-.8-15.24,5.05-28.39,14.2-39.13,1.78-2.09,3.69-4.09,5.69-5.99,4.44-4.21,9.37-7.97,14.54-11.23,1.11.87,2.25,1.6,3.27,2.21,4.67,2.52,10.06,3.62,15.67,3.62,12.95,0,27.05-5.89,35.99-13.86l.05-.05c2.76-2.56,4.83-5.14,6.22-7.67,7.11,1.14,12.89,3.73,16.5,7.8,9.26,10.08,11.99,30.39,5.79,43.59-1.78,4.21-4.4,8.33-7.57,11.9-10.71,11.31-24.61,17.7-37.26,17.12-7.68-.38-14.05-3.8-17.48-9.38-1.09-1.77-3.4-2.32-5.18-1.24-1.77,1.09-2.32,3.41-1.24,5.18,4.36,7.09,11.95,11.61,21.06,12.7-9.65-.54-20.02.87-29.81,6.14-3.38,1.87-20.31,6.89-30.78.36ZM520.89,333.5c-22.83,15.01-56.14,15.59-74.27,1.29-8.25-6.45-18.36-24.57-10.41-45.77,4.28-11.45,10.94-19.98,19.81-25.35,25.24-13.51,56.82,3.24,60.34,5.2.05.03.22.12.27.14.53.27,1.09.39,1.64.39,1.34,0,2.63-.75,3.31-2.03.95-1.81.23-4.08-1.56-5.08-3.9-2.17-17.88-9.33-34.62-11.05,14,.39,29.12-6.29,40.91-18.06l.5.12c17.23,2.89,27.47,11.74,30.46,26.31,5.1,24.32-11.21,57.47-36.36,73.89Z"/>
      <path class="cls-1" d="M359.47,207.08c-2.08-.24-3.93,1.25-4.17,3.31l-4.13,36.16c-.24,2.07,1.25,3.93,3.31,4.17.15.02.29.02.43.02,1.89,0,3.52-1.42,3.73-3.34l4.13-36.16c.24-2.06-1.25-3.93-3.31-4.17Z"/>
    </g>
  </g>
</svg>